<?xml version="1.0"?>
<svg width="900" height="675" xmlns="http://www.w3.org/2000/svg" xmlns:svg="http://www.w3.org/2000/svg" version="1.1">
 <g class="layer">
  <title>Layer 1</title>
  <path d="m616.28,739l-56.58,-33.46c-56.7,-33.35 -169.85,-100.27 -184.15,-166.85c-14.3,-66.69 70.51,-133.14 49.49,-199.83c-21.02,-66.57 -147.61,-133.5 -165.82,-200.31c-18.08,-66.81 72.34,-133.74 117.55,-167.08l45.21,-33.46l479.01,0l0,33.46c0,33.35 0,100.27 0,167.08c0,66.81 0,133.74 0,200.31c0,66.69 0,133.14 0,199.83c0,66.57 0,133.5 0,166.85l0,33.46l-284.72,0z" fill="#ff5824" id="svg_1" stroke-linecap="round"/>
 </g>
</svg>