<svg id="visual" viewBox="0 0 900 675" width="900" height="675" xmlns="http://www.w3.org/2000/svg" xmlns:xlink="http://www.w3.org/1999/xlink" version="1.1"><path d="M667 675L620.7 646.8C574.3 618.7 481.7 562.3 470 506.2C458.3 450 527.7 394 510.5 337.8C493.3 281.7 389.7 225.3 374.8 169C360 112.7 434 56.3 471 28.2L508 0L900 0L900 28.2C900 56.3 900 112.7 900 169C900 225.3 900 281.7 900 337.8C900 394 900 450 900 506.2C900 562.3 900 618.7 900 646.8L900 675Z" fill="#ff5824" stroke-linecap="round" stroke-linejoin="miter"></path></svg>