<?xml version="1.0"?>
<svg width="900" height="675" xmlns="http://www.w3.org/2000/svg" xmlns:svg="http://www.w3.org/2000/svg" version="1.1">
 <g class="layer">
  <title>Layer 1</title>
  <path d="m618.28,739l-93.58,-24.46c-56.7,-33.35 -130.85,-14.27 -151.15,-108.85c-20.3,-94.58 74.51,-200.14 53.49,-266.83c-21.02,-66.57 -143.74,-124.5 -165.82,-200.31c-22.08,-75.81 15.34,-149.74 60.55,-183.08l102.21,-17.46l479.01,0l0,33.46c0,33.35 0,100.27 0,167.08c0,66.81 0,133.74 0,200.31c0,66.69 0,133.14 0,199.83c0,66.57 0,133.5 0,166.85l0,33.46l-284.72,0l0.01,0z" fill="#ff5901" id="svg_1" stroke-linecap="round"/>
 </g>
</svg>