<svg id="visual" viewBox="0 0 960 540" width="960" height="540" xmlns="http://www.w3.org/2000/svg" xmlns:xlink="http://www.w3.org/1999/xlink" version="1.1"><path d="M712 540L662.3 517.5C612.7 495 513.3 450 500.8 405C488.3 360 562.7 315 544.5 270C526.3 225 415.7 180 399.8 135C384 90 463 45 502.5 22.5L542 0L960 0L960 22.5C960 45 960 90 960 135C960 180 960 225 960 270C960 315 960 360 960 405C960 450 960 495 960 517.5L960 540Z" fill="#ff5824" stroke-linecap="round" stroke-linejoin="miter"></path></svg>